<svg xmlns="http://www.w3.org/2000/svg" version="1.1" xmlns:xlink="http://www.w3.org/1999/xlink" xmlns:svgjs="http://svgjs.dev/svgjs" width="1500" height="1500" viewBox="0 0 1500 1500"><rect width="1500" height="1500" fill="#000000"></rect><g transform="matrix(0.6666666666666666,0,0,0.6666666666666666,249.39393939393938,438.5856950067477)"><svg viewBox="0 0 396 247" data-background-color="#ffffff" preserveAspectRatio="xMidYMid meet" height="935" width="1500" xmlns="http://www.w3.org/2000/svg" xmlns:xlink="http://www.w3.org/1999/xlink"><g id="tight-bounds" transform="matrix(1,0,0,1,0.2400000000000091,-0.09999999999999432)"><svg viewBox="0 0 395.52 247.2" height="247.2" width="395.52"><g><svg></svg></g><g><svg viewBox="0 0 395.52 247.2" height="247.2" width="395.52"><mask id="e75ee86c-84d5-4eda-b2d1-6d777dc94426"><rect width="395.52" height="247.2" fill="white"></rect><g transform="matrix(1,0,0,1,0,76.41703014514329)" id="clone"><svg viewBox="0 0 395.52 94.36593970971343" height="94.36593970971343" width="395.52"><g><svg viewBox="0 0 395.52 94.36593970971343" height="94.36593970971343" width="395.52"><g><svg viewBox="0 0 395.52 94.36593970971343" height="94.36593970971343" width="395.52"><g><svg viewBox="0 0 395.52 94.36593970971343" height="94.36593970971343" width="395.52"><g id="SvgjsG3692"><svg viewBox="0 0 395.52 94.36593970971343" height="94.36593970971343" width="395.52" id="SvgjsSvg3691"><g><svg viewBox="0 0 395.52 94.36593970971343" height="94.36593970971343" width="395.52"><g transform="matrix(1,0,0,1,0,0)"><svg width="395.52" viewBox="1.25 -43.25 231.303888886798 55.95" height="94.36593970971343" data-palette-color="#ed1703"><path d="M69.3 3.45Q69.55 3.6 69.73 4 69.9 4.4 69.9 4.8L69.9 4.8Q69.9 6.2 68.13 7.33 66.35 8.45 63.53 9.08 60.7 9.7 57.7 9.7L57.7 9.7Q50.95 9.7 42.58 6.45 34.2 3.2 26.38-2.6 18.55-8.4 13.45-15.6L13.45-15.6Q11.6-8 10.15-1.25L10.15-1.25Q9.95-0.45 9.73-0.25 9.5-0.05 8.9 0L8.9 0Q8.05 0.05 7.55 0.18 7.05 0.3 6.7 0.6L6.7 0.6Q6.15 0.6 6.15 0.25L6.15 0.25Q7.95-4.15 9.88-11.45 11.8-18.75 13.23-25.38 14.65-32 14.65-32.7L14.65-32.7Q14.65-32.85 14.53-33.02 14.4-33.2 14.1-33.2L14.1-33.2Q13.2-33.2 8.95-32.95L8.95-32.95Q6.25-32.75 5.55-32.75L5.55-32.75Q4.75-32.75 4.5-32.88 4.25-33 4.25-33.4L4.25-33.4Q4.25-34.15 4.63-35.23 5-36.3 5.55-36.3L5.55-36.3Q5.65-35.45 7.35-35.2 9.05-34.95 11.85-34.95L11.85-34.95Q14.05-34.95 15.93-35.08 17.8-35.2 19.5-35.35L19.5-35.35 22.25-35.6Q22.25-34.85 21.95-33.5L21.95-33.5 18.4-33.4Q18.1-33.4 17.85-33.23 17.6-33.05 17.55-32.75L17.55-32.75Q16-26.4 13.95-17.75L13.95-17.75Q16.4-19.55 23.15-25L23.15-25Q27.65-28.65 30.9-31.18 34.15-33.7 37.5-35.9L37.5-35.9 37.8-35.9Q38.8-35.35 40.35-34.85L40.35-34.85 40.35-34.45Q39.2-34.65 30.18-28 21.15-21.35 15.35-16.65L15.35-16.65Q20.85-9.3 28.1-3.78 35.35 1.75 43 4.73 50.65 7.7 57.35 7.7L57.35 7.7Q60.35 7.7 62.53 7.13 64.7 6.55 66.15 5.68 67.6 4.8 69.3 3.45L69.3 3.45ZM43.9 0.2L43.4-0.4Q44.95-0.55 45.2-1.6L45.2-1.6Q48.65-15.1 50.25-22.23 51.85-29.35 51.85-31.3L51.85-31.3Q51.85-32.25 51.4-32.55 50.95-32.85 49.7-32.85L49.7-32.85Q46.75-32.85 45-32.5L45-32.5Q45-34.65 46.15-34.65L46.15-34.65Q50.45-34.7 52.42-34.8 54.4-34.9 56.6-35.2L56.6-35.2Q56.85-35.1 56.97-34.6 57.1-34.1 57.05-33.7L57.05-33.7Q56.2-33.6 55.5-33.27 54.8-32.95 54.65-32.4L54.65-32.4Q53.2-27 50.35-12.6L50.35-12.6Q49.85-10.3 49.32-7.6 48.8-4.9 48.15-2L48.15-2Q47.85-0.75 47.07-0.25 46.3 0.25 44.85 0.25L44.85 0.25 43.9 0.2ZM87.5-2.35Q87.75-1.4 87.75 1.9L87.75 1.9 87.05 1.75Q86.95 0.8 86.7 0.48 86.45 0.15 85.85-0.05L85.85-0.05Q84.6-0.45 81.55-0.68 78.5-0.9 74.65-0.9L74.65-0.9Q69.7-0.9 65.5-0.5 61.3-0.1 58.7 0.65L58.7 0.65Q58.35 0.65 57.9-0.13 57.45-0.9 57.45-1.45L57.45-1.45Q57.45-1.65 57.55-1.73 57.65-1.8 57.9-1.85L57.9-1.85Q60.3-2.25 62.07-3.33 63.85-4.4 65.75-8.2 67.65-12 69.15-19.6L69.15-19.6Q70.95-28.7 71.95-33.6L71.95-33.6Q72.1-34.25 72.32-34.55 72.55-34.85 73-35L73-35Q74.3-35.55 76.3-35.88 78.3-36.2 80.4-36.2L80.4-36.2Q80.7-36.15 80.95-35.6 81.2-35.05 81.3-34.48 81.4-33.9 81.3-33.8L81.3-33.8Q80.8-33.95 79.75-34.02 78.7-34.1 78-34.1L78-34.1Q76.25-34.1 75.47-33.35 74.7-32.6 74.4-31.25L74.4-31.25Q73.65-27.9 73.05-24.8L73.05-24.8Q71.8-18.8 71.15-16.25L71.15-16.25Q69.7-10.4 67.9-7.05 66.1-3.7 63.3-2.2L63.3-2.2Q64.9-2.3 67.35-2.55 69.8-2.8 71.2-2.9L71.2-2.9Q75.3-3.35 77.97-3.58 80.65-3.8 82.85-3.8L82.85-3.8Q85.25-3.8 86.25-3.48 87.25-3.15 87.5-2.35L87.5-2.35ZM135.14-5.15Q135.49-4.9 135.49-4.35L135.49-4.35Q135.49-3.4 134.17-2.25 132.84-1.1 130.77-0.33 128.69 0.45 126.54 0.45L126.54 0.45Q123.34 0.45 121.62-1.45 119.89-3.35 119.89-6.95L119.89-6.95Q119.89-8.75 120.24-10.65L120.24-10.65Q117.49-5.5 113.24-2.55 108.99 0.4 104.74 0.4L104.74 0.4Q101.34 0.4 99.34-1.58 97.34-3.55 97.34-7.4L97.34-7.4Q97.34-9.75 98.64-14.5 99.94-19.25 102.19-26.45L102.19-26.45 103.79-31.7Q104.09-32.85 102.24-32.85L102.24-32.85Q101.49-32.85 99.79-32.65L99.79-32.65Q98.09-32.45 97.59-32.45L97.59-32.45Q96.64-32.45 96.19-32.8 95.74-33.15 95.74-33.95L95.74-33.95Q95.74-34.85 95.99-35.5L95.99-35.5Q96.49-35.2 96.94-35.1 97.39-35 98.34-35L98.34-35 104.54-35.1Q105.89-35.1 106.44-34.73 106.99-34.35 106.99-33.45L106.99-33.45Q106.99-32.6 106.39-30.53 105.79-28.45 104.64-25L104.64-25Q102.64-18.85 101.57-14.9 100.49-10.95 100.49-8.4L100.49-8.4Q100.49-5.3 101.67-3.78 102.84-2.25 105.54-2.25L105.54-2.25Q108.59-2.25 111.67-4.08 114.74-5.9 117.14-8.93 119.54-11.95 120.69-15.4L120.69-15.4Q122.69-21.4 124.79-28.65L124.79-28.65 125.34-30.55Q126.04-32.9 126.34-33.77 126.64-34.65 127.07-35.05 127.49-35.45 128.24-35.45L128.24-35.45Q129.24-35.45 130.79-35L130.79-35Q130.19-34.55 129.87-33.98 129.54-33.4 128.94-32.05L128.94-32.05Q127.09-27.7 125.77-23.28 124.44-18.85 123.39-13.85L123.39-13.85Q122.44-9.3 122.44-7.4L122.44-7.4Q122.44-4.65 123.69-3.3 124.94-1.95 127.69-1.95L127.69-1.95Q132.04-1.95 135.14-5.15L135.14-5.15ZM172.99-40.25Q174.19-40.25 175.34-39.58 176.49-38.9 176.84-38.4L176.84-38.4Q172.69-38.4 170.17-34.43 167.64-30.45 166.14-23.93 164.64-17.4 162.49-4.6L162.49-4.6 161.69 0.1Q160.74 0.4 159.49 0.4L159.49 0.4 157.19-4.7Q152.74-14.55 150.37-19.63 147.99-24.7 145.44-29.6L145.44-29.6 144.14-24.65Q141.89-16.25 140.79-10.73 139.69-5.2 139.69 0.75L139.69 0.75 139.44 0.75Q138.09 0.75 137.44 0.1 136.79-0.55 136.79-2.4L136.79-2.4Q136.79-4.55 137.57-7.98 138.34-11.4 139.99-17.5L139.99-17.5Q141.39-22.8 142.07-25.7 142.74-28.6 142.74-30.25L142.74-30.25Q142.74-31.2 142.34-31.58 141.94-31.95 140.74-31.95L140.74-31.95Q140.29-31.95 138.89-31.85L138.89-31.85 137.14-31.8Q136.49-31.8 136.12-32.02 135.74-32.25 135.74-33L135.74-33Q135.74-33.5 135.99-34.35L135.99-34.35Q137.34-33.85 139.94-33.85L139.94-33.85Q141.69-33.85 142.72-34.05 143.74-34.25 145.09-34.7L145.09-34.7Q145.59-34.7 145.99-33.9L145.99-33.9Q149.34-27.2 157.54-9.85L157.54-9.85 160.14-4.35Q162.59-20.85 165.62-30.55 168.64-40.25 172.99-40.25L172.99-40.25ZM190.64 0.65Q188.39 0.65 186.69 0.28 184.99-0.1 182.69-0.8L182.69-0.8Q181.69-1.15 180.69-1.43 179.69-1.7 178.84-1.75L178.84-1.75Q178.19-1.8 177.89-1.9 177.59-2 176.79-2.5L176.79-2.5Q177.29-3.15 177.54-3.58 177.79-4 177.94-4.8L177.94-4.8Q178.84-8.8 180.99-19.75 183.14-30.7 183.14-32.15L183.14-32.15Q183.14-33.1 182.09-33.1L182.09-33.1Q181.29-33.1 179.04-32.75L179.04-32.75Q175.09-32.2 173.99-32.2L173.99-32.2Q172.89-32.2 172.36-32.6 171.84-33 171.84-34.05L171.84-34.05Q171.84-34.7 172.09-35.45L172.09-35.45Q173.04-35 173.79-34.85 174.54-34.7 176.29-34.7L176.29-34.7Q177.59-34.7 179.71-34.8 181.84-34.9 182.89-34.95L182.89-34.95Q187.89-35.25 189.94-35.25L189.94-35.25Q198.69-35.25 203.94-31.45 209.19-27.65 209.19-18.9L209.19-18.9Q209.19-12.95 206.71-8.5 204.24-4.05 200.01-1.7 195.79 0.65 190.64 0.65L190.64 0.65ZM190.64-1.5Q194.99-1.5 198.56-3.78 202.14-6.05 204.24-10.1 206.34-14.15 206.34-19.3L206.34-19.3Q206.34-27 201.81-30.2 197.29-33.4 190.14-33.4L190.14-33.4Q188.04-33.4 187.24-33.1 186.44-32.8 186.24-31.95L186.24-31.95Q183.84-20 181.39-7.35L181.39-7.35Q181.04-5.8 181.04-5.25L181.04-5.25Q181.04-4.6 181.89-4.05L181.89-4.05Q183.54-2.9 185.89-2.2 188.24-1.5 190.64-1.5L190.64-1.5ZM216.39 0.2L215.89-0.4Q217.44-0.55 217.69-1.6L217.69-1.6Q221.14-15.1 222.74-22.23 224.34-29.35 224.34-31.3L224.34-31.3Q224.34-32.25 223.89-32.55 223.44-32.85 222.19-32.85L222.19-32.85Q219.24-32.85 217.49-32.5L217.49-32.5Q217.49-34.65 218.64-34.65L218.64-34.65Q222.94-34.7 224.91-34.8 226.89-34.9 229.09-35.2L229.09-35.2Q229.34-35.1 229.46-34.6 229.59-34.1 229.54-33.7L229.54-33.7Q228.69-33.6 227.99-33.27 227.29-32.95 227.14-32.4L227.14-32.4Q225.69-27 222.84-12.6L222.84-12.6Q222.34-10.3 221.81-7.6 221.29-4.9 220.64-2L220.64-2Q220.34-0.75 219.56-0.25 218.79 0.25 217.34 0.25L217.34 0.25 216.39 0.2Z" opacity="1" transform="matrix(1,0,0,1,0,0)" fill="black" class="wordmark-text-0" id="SvgjsPath3690" stroke-width="5" stroke="black" stroke-linejoin="round"></path></svg></g></svg></g></svg></g></svg></g></svg></g></svg></g></svg></g></mask><g mask="url(#e75ee86c-84d5-4eda-b2d1-6d777dc94426)"><g><path d="M370.934 213.613c0.896 0.537 1.666 1.523 2.311 2.956 0.609 1.433 0.914 2.866 0.914 4.299v0c0 5.016-3.171 9.548-9.512 13.596-6.377 4.013-14.617 7.147-24.72 9.404-10.139 2.221-20.582 3.332-31.33 3.332v0c-24.183 0-51.267-5.822-81.254-17.465-30.022-11.643-59.041-27.855-87.057-48.634-28.052-20.779-51.213-44.066-69.485-69.861v0c-6.628 27.228-12.539 52.933-17.734 77.116v0c-0.717 2.866-1.469 4.657-2.257 5.374-0.824 0.717-2.311 1.164-4.46 1.343v0c-3.045 0.179-5.463 0.502-7.255 0.967-1.791 0.43-3.314 1.182-4.568 2.257v0c-1.97 0-2.956-0.627-2.955-1.88v0c6.449-15.763 13.13-36.722 20.044-62.875 6.879-26.153 12.879-51.106 18.003-74.859 5.087-23.717 7.631-36.829 7.631-39.337v0c0-0.537-0.215-1.111-0.645-1.72-0.466-0.645-1.236-0.967-2.311-0.967v0c-3.224 0-12.45 0.448-27.675 1.344v0c-9.673 0.717-15.763 1.075-18.272 1.074v0c-2.866 0-4.747-0.233-5.642-0.698-0.896-0.43-1.343-1.361-1.344-2.795v0c0-2.687 0.681-5.965 2.042-9.834 1.326-3.833 2.974-5.75 4.944-5.75v0c0.358 3.045 3.583 5.016 9.673 5.911 6.09 0.896 14.151 1.343 24.183 1.344v0c7.882 0 15.19-0.233 21.926-0.699 6.699-0.43 13.094-0.914 19.184-1.451v0l14.779-1.343c0 2.687-0.537 6.449-1.612 11.285v0l-19.078 0.537c-1.075 0-2.06 0.305-2.955 0.914-0.896 0.645-1.433 1.505-1.613 2.579v0c-5.553 22.75-12.002 49.619-19.346 80.609v0c8.777-6.449 25.257-19.436 49.44-38.961v0c16.122-13.077 30.004-24.147 41.648-33.211 11.643-9.028 23.466-17.483 35.468-25.364v0h1.612c3.583 1.97 8.15 3.851 13.704 5.642v0 2.15c-4.12-0.717-22.338 10.837-54.653 34.661-32.351 23.824-58.916 44.156-79.695 60.994v0c19.704 26.332 42.543 49.386 68.517 69.163 25.974 19.812 52.664 35.056 80.071 45.732 27.407 10.64 53.112 15.961 77.116 15.96v0c10.748 0 20.027-1.021 27.837-3.063 7.774-2.078 14.259-4.675 19.454-7.792 5.195-3.153 10.837-7.147 16.927-11.984z" fill="#ffffff" fill-rule="nonzero" stroke="none" stroke-width="1" stroke-linecap="butt" stroke-linejoin="miter" stroke-miterlimit="10" stroke-dasharray="" stroke-dashoffset="0" font-family="none" font-weight="none" font-size="none" text-anchor="none" style="mix-blend-mode: normal" data-fill-palette-color="tertiary"></path></g></g><g transform="matrix(1,0,0,1,0,76.41703014514329)"><svg viewBox="0 0 395.52 94.36593970971343" height="94.36593970971343" width="395.52"><g><svg viewBox="0 0 395.52 94.36593970971343" height="94.36593970971343" width="395.52"><g><svg viewBox="0 0 395.52 94.36593970971343" height="94.36593970971343" width="395.52"><g><svg viewBox="0 0 395.52 94.36593970971343" height="94.36593970971343" width="395.52"><g id="textblocktransform"><svg viewBox="0 0 395.52 94.36593970971343" height="94.36593970971343" width="395.52" id="textblock"><g><svg viewBox="0 0 395.52 94.36593970971343" height="94.36593970971343" width="395.52"><g transform="matrix(1,0,0,1,0,0)"><svg width="395.52" viewBox="1.25 -43.25 231.303888886798 55.95" height="94.36593970971343" data-palette-color="#ed1703"><path d="M69.3 3.45Q69.55 3.6 69.73 4 69.9 4.4 69.9 4.8L69.9 4.8Q69.9 6.2 68.13 7.33 66.35 8.45 63.53 9.08 60.7 9.7 57.7 9.7L57.7 9.7Q50.95 9.7 42.58 6.45 34.2 3.2 26.38-2.6 18.55-8.4 13.45-15.6L13.45-15.6Q11.6-8 10.15-1.25L10.15-1.25Q9.95-0.45 9.73-0.25 9.5-0.05 8.9 0L8.9 0Q8.05 0.05 7.55 0.18 7.05 0.3 6.7 0.6L6.7 0.6Q6.15 0.6 6.15 0.25L6.15 0.25Q7.95-4.15 9.88-11.45 11.8-18.75 13.23-25.38 14.65-32 14.65-32.7L14.65-32.7Q14.65-32.85 14.53-33.02 14.4-33.2 14.1-33.2L14.1-33.2Q13.2-33.2 8.95-32.95L8.95-32.95Q6.25-32.75 5.55-32.75L5.55-32.75Q4.75-32.75 4.5-32.88 4.25-33 4.25-33.4L4.25-33.4Q4.25-34.15 4.63-35.23 5-36.3 5.55-36.3L5.55-36.3Q5.65-35.45 7.35-35.2 9.05-34.95 11.85-34.95L11.85-34.95Q14.05-34.95 15.93-35.08 17.8-35.2 19.5-35.35L19.5-35.35 22.25-35.6Q22.25-34.85 21.95-33.5L21.95-33.5 18.4-33.4Q18.1-33.4 17.85-33.23 17.6-33.05 17.55-32.75L17.55-32.75Q16-26.4 13.95-17.75L13.95-17.75Q16.4-19.55 23.15-25L23.15-25Q27.65-28.65 30.9-31.18 34.15-33.7 37.5-35.9L37.5-35.9 37.8-35.9Q38.8-35.35 40.35-34.85L40.35-34.85 40.35-34.45Q39.2-34.65 30.18-28 21.15-21.35 15.35-16.65L15.35-16.65Q20.85-9.3 28.1-3.78 35.35 1.75 43 4.73 50.65 7.7 57.35 7.7L57.35 7.7Q60.35 7.7 62.53 7.13 64.7 6.55 66.15 5.68 67.6 4.8 69.3 3.45L69.3 3.45ZM43.9 0.2L43.4-0.4Q44.95-0.55 45.2-1.6L45.2-1.6Q48.65-15.1 50.25-22.23 51.85-29.35 51.85-31.3L51.85-31.3Q51.85-32.25 51.4-32.55 50.95-32.85 49.7-32.85L49.7-32.85Q46.75-32.85 45-32.5L45-32.5Q45-34.65 46.15-34.65L46.15-34.65Q50.45-34.7 52.42-34.8 54.4-34.9 56.6-35.2L56.6-35.2Q56.85-35.1 56.97-34.6 57.1-34.1 57.05-33.7L57.05-33.7Q56.2-33.6 55.5-33.27 54.8-32.95 54.65-32.4L54.65-32.4Q53.2-27 50.35-12.6L50.35-12.6Q49.85-10.3 49.32-7.6 48.8-4.9 48.15-2L48.15-2Q47.85-0.75 47.07-0.25 46.3 0.25 44.85 0.25L44.85 0.25 43.9 0.2ZM87.5-2.35Q87.75-1.4 87.75 1.9L87.75 1.9 87.05 1.75Q86.95 0.8 86.7 0.48 86.45 0.15 85.85-0.05L85.85-0.05Q84.6-0.45 81.55-0.68 78.5-0.9 74.65-0.9L74.65-0.9Q69.7-0.9 65.5-0.5 61.3-0.1 58.7 0.65L58.7 0.65Q58.35 0.65 57.9-0.13 57.45-0.9 57.45-1.45L57.45-1.45Q57.45-1.65 57.55-1.73 57.65-1.8 57.9-1.85L57.9-1.85Q60.3-2.25 62.07-3.33 63.85-4.4 65.75-8.2 67.65-12 69.15-19.6L69.15-19.6Q70.95-28.7 71.95-33.6L71.95-33.6Q72.1-34.25 72.32-34.55 72.55-34.85 73-35L73-35Q74.3-35.55 76.3-35.88 78.3-36.2 80.4-36.2L80.4-36.2Q80.7-36.15 80.95-35.6 81.2-35.05 81.3-34.48 81.4-33.9 81.3-33.8L81.3-33.8Q80.8-33.95 79.75-34.02 78.7-34.1 78-34.1L78-34.1Q76.25-34.1 75.47-33.35 74.7-32.6 74.4-31.25L74.4-31.25Q73.65-27.9 73.05-24.8L73.05-24.8Q71.8-18.8 71.15-16.25L71.15-16.25Q69.7-10.4 67.9-7.05 66.1-3.7 63.3-2.2L63.3-2.2Q64.9-2.3 67.35-2.55 69.8-2.8 71.2-2.9L71.2-2.9Q75.3-3.35 77.97-3.58 80.65-3.8 82.85-3.8L82.85-3.8Q85.25-3.8 86.25-3.48 87.25-3.15 87.5-2.35L87.5-2.35ZM135.14-5.15Q135.49-4.9 135.49-4.35L135.49-4.35Q135.49-3.4 134.17-2.25 132.84-1.1 130.77-0.33 128.69 0.45 126.54 0.45L126.54 0.45Q123.34 0.45 121.62-1.45 119.89-3.35 119.89-6.95L119.89-6.95Q119.89-8.75 120.24-10.65L120.24-10.65Q117.49-5.5 113.24-2.55 108.99 0.4 104.74 0.4L104.74 0.4Q101.34 0.4 99.34-1.58 97.34-3.55 97.34-7.4L97.34-7.4Q97.34-9.75 98.64-14.5 99.94-19.25 102.19-26.45L102.19-26.45 103.79-31.7Q104.09-32.85 102.24-32.85L102.24-32.85Q101.49-32.85 99.79-32.65L99.79-32.65Q98.09-32.45 97.59-32.45L97.59-32.45Q96.64-32.45 96.19-32.8 95.74-33.15 95.74-33.95L95.74-33.95Q95.74-34.85 95.99-35.5L95.99-35.5Q96.49-35.2 96.94-35.1 97.39-35 98.34-35L98.34-35 104.54-35.1Q105.89-35.1 106.44-34.73 106.99-34.35 106.99-33.45L106.99-33.45Q106.99-32.6 106.39-30.53 105.79-28.45 104.64-25L104.64-25Q102.64-18.85 101.57-14.9 100.49-10.95 100.49-8.4L100.49-8.4Q100.49-5.3 101.67-3.78 102.84-2.25 105.54-2.25L105.54-2.25Q108.59-2.25 111.67-4.08 114.74-5.9 117.14-8.93 119.54-11.95 120.69-15.4L120.69-15.4Q122.69-21.4 124.79-28.65L124.79-28.65 125.34-30.55Q126.04-32.9 126.34-33.77 126.64-34.65 127.07-35.05 127.49-35.45 128.24-35.45L128.24-35.45Q129.24-35.45 130.79-35L130.79-35Q130.19-34.55 129.87-33.98 129.54-33.4 128.94-32.05L128.94-32.05Q127.09-27.7 125.77-23.28 124.44-18.85 123.39-13.85L123.39-13.85Q122.44-9.3 122.44-7.4L122.44-7.4Q122.44-4.65 123.69-3.3 124.94-1.95 127.69-1.95L127.69-1.95Q132.04-1.95 135.14-5.15L135.14-5.15ZM172.99-40.25Q174.19-40.25 175.34-39.58 176.49-38.9 176.84-38.4L176.84-38.4Q172.69-38.4 170.17-34.43 167.64-30.45 166.14-23.93 164.64-17.4 162.49-4.6L162.49-4.6 161.69 0.1Q160.74 0.4 159.49 0.4L159.49 0.4 157.19-4.7Q152.74-14.55 150.37-19.63 147.99-24.7 145.44-29.6L145.44-29.6 144.14-24.65Q141.89-16.25 140.79-10.73 139.69-5.2 139.69 0.75L139.69 0.75 139.44 0.75Q138.09 0.75 137.44 0.1 136.79-0.55 136.79-2.4L136.79-2.4Q136.79-4.55 137.57-7.98 138.34-11.4 139.99-17.5L139.99-17.5Q141.39-22.8 142.07-25.7 142.74-28.6 142.74-30.25L142.74-30.25Q142.74-31.2 142.34-31.58 141.94-31.95 140.74-31.95L140.74-31.95Q140.29-31.95 138.89-31.85L138.89-31.85 137.14-31.8Q136.49-31.8 136.12-32.02 135.74-32.25 135.74-33L135.74-33Q135.74-33.5 135.99-34.35L135.99-34.35Q137.34-33.85 139.94-33.85L139.94-33.85Q141.69-33.85 142.72-34.05 143.74-34.25 145.09-34.7L145.09-34.7Q145.59-34.7 145.99-33.9L145.99-33.9Q149.34-27.2 157.54-9.85L157.54-9.85 160.14-4.35Q162.59-20.85 165.62-30.55 168.64-40.25 172.99-40.25L172.99-40.25ZM190.64 0.65Q188.39 0.65 186.69 0.28 184.99-0.1 182.69-0.8L182.69-0.8Q181.69-1.15 180.69-1.43 179.69-1.7 178.84-1.75L178.84-1.75Q178.19-1.8 177.89-1.9 177.59-2 176.79-2.5L176.79-2.5Q177.29-3.15 177.54-3.58 177.79-4 177.94-4.8L177.94-4.8Q178.84-8.8 180.99-19.75 183.14-30.7 183.14-32.15L183.14-32.15Q183.14-33.1 182.09-33.1L182.09-33.1Q181.29-33.1 179.04-32.75L179.04-32.75Q175.09-32.2 173.99-32.2L173.99-32.2Q172.89-32.2 172.36-32.6 171.84-33 171.84-34.05L171.84-34.05Q171.84-34.7 172.09-35.45L172.09-35.45Q173.04-35 173.79-34.85 174.54-34.7 176.29-34.7L176.29-34.7Q177.59-34.7 179.71-34.8 181.84-34.9 182.89-34.95L182.89-34.95Q187.89-35.25 189.94-35.25L189.94-35.25Q198.69-35.25 203.94-31.45 209.19-27.65 209.19-18.9L209.19-18.9Q209.19-12.95 206.71-8.5 204.24-4.05 200.01-1.7 195.79 0.65 190.64 0.65L190.64 0.65ZM190.64-1.5Q194.99-1.5 198.56-3.78 202.14-6.05 204.24-10.1 206.34-14.15 206.34-19.3L206.34-19.3Q206.34-27 201.81-30.2 197.29-33.4 190.14-33.4L190.14-33.4Q188.04-33.4 187.24-33.1 186.44-32.8 186.24-31.95L186.24-31.95Q183.84-20 181.39-7.35L181.39-7.35Q181.04-5.8 181.04-5.25L181.04-5.25Q181.04-4.6 181.89-4.05L181.89-4.05Q183.54-2.9 185.89-2.2 188.24-1.5 190.64-1.5L190.64-1.5ZM216.39 0.2L215.89-0.4Q217.44-0.55 217.69-1.6L217.69-1.6Q221.14-15.1 222.74-22.23 224.34-29.35 224.34-31.3L224.34-31.3Q224.34-32.25 223.89-32.55 223.44-32.85 222.19-32.85L222.19-32.85Q219.24-32.85 217.49-32.5L217.49-32.5Q217.49-34.65 218.64-34.65L218.64-34.65Q222.94-34.7 224.91-34.8 226.89-34.9 229.09-35.2L229.09-35.2Q229.34-35.1 229.46-34.6 229.59-34.1 229.54-33.7L229.54-33.7Q228.69-33.6 227.99-33.27 227.29-32.95 227.14-32.4L227.14-32.4Q225.69-27 222.84-12.6L222.84-12.6Q222.34-10.3 221.81-7.6 221.29-4.9 220.64-2L220.64-2Q220.34-0.75 219.56-0.25 218.79 0.25 217.34 0.25L217.34 0.25 216.39 0.2Z" opacity="1" transform="matrix(1,0,0,1,0,0)" fill="#ffffff" class="wordmark-text-0" data-fill-palette-color="primary" id="text-0"></path></svg></g></svg></g></svg></g></svg></g></svg></g></svg></g></svg></g></svg></g><defs></defs></svg><rect width="395.52" height="247.2" fill="none" stroke="none" visibility="hidden"></rect></g></svg></g></svg>